<mxfile modified="2023-05-21T04:30:26.063Z" host="app.diagrams.net" agent="Mozilla/5.0 (Windows NT 10.0; Win64; x64) AppleWebKit/537.36 (KHTML, like Gecko) Chrome/113.0.0.0 Safari/537.36" etag="n-U7yo35TWGJtZJDQQgY" version="21.3.2" type="github">
  <diagram id="Ht1M8jgEwFfnCIfOTk4-" name="Page-1">
    <mxGraphModel dx="1036" dy="752" grid="1" gridSize="10" guides="1" tooltips="1" connect="1" arrows="1" fold="1" page="1" pageScale="1" pageWidth="1169" pageHeight="827" math="0" shadow="0">
      <root>
        <mxCell id="0" />
        <mxCell id="1" parent="0" />
        <mxCell id="UEzPUAAOIrF-is8g5C7q-128" style="edgeStyle=orthogonalEdgeStyle;rounded=0;orthogonalLoop=1;jettySize=auto;html=1;startArrow=open;startFill=0;endArrow=open;endFill=0;strokeWidth=2;strokeColor=#808080;" parent="1" source="UEzPUAAOIrF-is8g5C7q-109" edge="1">
          <mxGeometry relative="1" as="geometry">
            <Array as="points">
              <mxPoint x="483" y="480" />
              <mxPoint x="483" y="310" />
            </Array>
            <mxPoint x="540" y="310" as="targetPoint" />
          </mxGeometry>
        </mxCell>
        <mxCell id="UEzPUAAOIrF-is8g5C7q-127" style="edgeStyle=orthogonalEdgeStyle;rounded=0;orthogonalLoop=1;jettySize=auto;html=1;startArrow=open;startFill=0;endArrow=open;endFill=0;strokeWidth=2;strokeColor=#808080;entryX=0;entryY=0.5;entryDx=0;entryDy=0;" parent="1" source="UEzPUAAOIrF-is8g5C7q-110" target="Oj6Ag1BXf9ZlunEk1vQs-3" edge="1">
          <mxGeometry relative="1" as="geometry">
            <Array as="points">
              <mxPoint x="520" y="300" />
              <mxPoint x="520" y="300" />
            </Array>
            <mxPoint x="542" y="380" as="targetPoint" />
          </mxGeometry>
        </mxCell>
        <mxCell id="UEzPUAAOIrF-is8g5C7q-109" value="data lake CLI" style="outlineConnect=0;gradientColor=none;fontColor=#545B64;strokeColor=none;fillColor=#879196;dashed=0;verticalLabelPosition=bottom;verticalAlign=top;align=center;html=1;fontSize=12;fontStyle=0;aspect=fixed;shape=mxgraph.aws4.illustration_desktop;pointerEvents=1;labelBackgroundColor=#ffffff;" parent="1" vertex="1">
          <mxGeometry x="333" y="434" width="100" height="91" as="geometry" />
        </mxCell>
        <mxCell id="UEzPUAAOIrF-is8g5C7q-110" value="Users" style="outlineConnect=0;gradientColor=none;fontColor=#545B64;strokeColor=none;fillColor=#879196;dashed=0;verticalLabelPosition=bottom;verticalAlign=top;align=center;html=1;fontSize=12;fontStyle=0;aspect=fixed;shape=mxgraph.aws4.illustration_notification;pointerEvents=1;labelBackgroundColor=#ffffff;" parent="1" vertex="1">
          <mxGeometry x="333" y="240" width="100" height="81" as="geometry" />
        </mxCell>
        <mxCell id="Oj6Ag1BXf9ZlunEk1vQs-2" value="Front end service" style="swimlane;whiteSpace=wrap;html=1;" vertex="1" parent="1">
          <mxGeometry x="490" y="50" width="200" height="500" as="geometry" />
        </mxCell>
        <mxCell id="Oj6Ag1BXf9ZlunEk1vQs-3" value="Trader interface" style="whiteSpace=wrap;html=1;aspect=fixed;" vertex="1" parent="Oj6Ag1BXf9ZlunEk1vQs-2">
          <mxGeometry x="55" y="210" width="80" height="80" as="geometry" />
        </mxCell>
        <mxCell id="Oj6Ag1BXf9ZlunEk1vQs-4" value="Data Warehouse" style="swimlane;whiteSpace=wrap;html=1;" vertex="1" parent="1">
          <mxGeometry x="700" y="390" width="200" height="160" as="geometry" />
        </mxCell>
        <mxCell id="Oj6Ag1BXf9ZlunEk1vQs-6" value="Data warehouse" style="whiteSpace=wrap;html=1;aspect=fixed;" vertex="1" parent="Oj6Ag1BXf9ZlunEk1vQs-4">
          <mxGeometry x="60" y="40" width="80" height="80" as="geometry" />
        </mxCell>
        <mxCell id="Oj6Ag1BXf9ZlunEk1vQs-8" value="Back end service" style="swimlane;whiteSpace=wrap;html=1;" vertex="1" parent="1">
          <mxGeometry x="700" y="50" width="200" height="320" as="geometry" />
        </mxCell>
        <mxCell id="Oj6Ag1BXf9ZlunEk1vQs-9" value="Order Management" style="whiteSpace=wrap;html=1;aspect=fixed;" vertex="1" parent="Oj6Ag1BXf9ZlunEk1vQs-8">
          <mxGeometry x="60" y="220" width="80" height="80" as="geometry" />
        </mxCell>
        <mxCell id="Oj6Ag1BXf9ZlunEk1vQs-10" value="Wallet Manager" style="whiteSpace=wrap;html=1;aspect=fixed;" vertex="1" parent="Oj6Ag1BXf9ZlunEk1vQs-8">
          <mxGeometry x="60" y="130" width="80" height="80" as="geometry" />
        </mxCell>
        <mxCell id="Oj6Ag1BXf9ZlunEk1vQs-11" value="Market Data Service" style="whiteSpace=wrap;html=1;aspect=fixed;" vertex="1" parent="Oj6Ag1BXf9ZlunEk1vQs-8">
          <mxGeometry x="60" y="40" width="80" height="80" as="geometry" />
        </mxCell>
        <mxCell id="Oj6Ag1BXf9ZlunEk1vQs-13" value="3rd party" style="swimlane;whiteSpace=wrap;html=1;" vertex="1" parent="1">
          <mxGeometry x="920" y="50" width="200" height="500" as="geometry" />
        </mxCell>
        <mxCell id="Oj6Ag1BXf9ZlunEk1vQs-14" value="Exchange" style="shape=process;whiteSpace=wrap;html=1;backgroundOutline=1;" vertex="1" parent="Oj6Ag1BXf9ZlunEk1vQs-13">
          <mxGeometry x="40" y="130" width="120" height="60" as="geometry" />
        </mxCell>
        <mxCell id="Oj6Ag1BXf9ZlunEk1vQs-15" value="Bloomberg B-pipe" style="shape=process;whiteSpace=wrap;html=1;backgroundOutline=1;" vertex="1" parent="Oj6Ag1BXf9ZlunEk1vQs-13">
          <mxGeometry x="40" y="220" width="120" height="60" as="geometry" />
        </mxCell>
      </root>
    </mxGraphModel>
  </diagram>
</mxfile>
